<?xml version="1.0" standalone="no"?>
<!DOCTYPE svg PUBLIC "-//W3C//DTD SVG 20010904//EN"
 "http://www.w3.org/TR/2001/REC-SVG-20010904/DTD/svg10.dtd">
<svg version="1.0" xmlns="http://www.w3.org/2000/svg"
 width="1402.000000pt" height="1122.000000pt" viewBox="0 0 1402.000000 1122.000000"
 preserveAspectRatio="xMidYMid meet">

<g transform="translate(0.000000,1122.000000) scale(0.100000,-0.100000)"
fill="#000000" stroke="none">
<path d="M10025 9619 c-635 -511 -1475 -1196 -2041 -1664 -66 -55 -183 -152
-260 -215 -76 -63 -297 -245 -490 -406 l-350 -291 -59 91 c-32 50 -317 479
-632 953 -600 903 -596 898 -690 934 -15 6 -309 73 -652 150 -590 132 -628
139 -675 129 -64 -14 -124 -49 -154 -89 -55 -75 -52 89 -52 -2570 0 -1701 3
-2468 11 -2494 14 -50 73 -115 127 -139 24 -11 67 -20 96 -20 53 -1 59 1 1454
476 160 54 210 83 238 138 21 41 21 118 -1 155 -9 15 -141 118 -292 228 -223
162 -279 208 -301 245 l-27 45 -3 1018 c-2 703 1 1031 8 1058 12 43 44 83 63
76 11 -3 147 -187 580 -782 100 -137 223 -295 272 -350 103 -114 290 -328 484
-555 73 -85 141 -158 152 -162 33 -13 66 9 123 79 119 147 864 1063 930 1144
693 848 1237 1506 1606 1944 69 83 273 326 452 540 180 215 370 441 423 503
68 80 95 119 93 134 -2 12 -7 23 -13 24 -5 2 -194 -146 -420 -327z"/>
<path d="M9768 8379 c-17 -6 -120 -125 -280 -322 -315 -388 -720 -885 -1025
-1254 -128 -156 -233 -287 -233 -292 0 -5 16 -15 35 -21 24 -8 45 -26 63 -53
l27 -41 5 -875 5 -876 25 -44 c14 -24 41 -57 60 -73 23 -18 271 -123 670 -283
574 -231 640 -255 693 -255 98 0 178 52 215 140 12 30 14 309 16 2060 l1 2025
-28 58 c-37 75 -84 107 -164 113 -32 2 -70 -1 -85 -7z"/>
<path d="M4815 3417 c-154 -51 -232 -145 -243 -288 -13 -180 81 -271 343 -335
174 -42 220 -74 194 -135 -17 -42 -56 -59 -138 -59 -83 0 -151 23 -240 80
l-60 39 -77 -86 -77 -87 39 -34 c56 -49 187 -110 274 -128 89 -19 226 -14 310
11 72 21 151 76 185 127 40 60 55 113 55 193 0 60 -5 82 -28 126 -48 93 -123
132 -382 200 -117 31 -153 71 -115 126 45 64 219 46 321 -32 20 -15 39 -23 44
-19 20 22 130 178 130 185 0 14 -114 77 -180 100 -81 28 -290 37 -355 16z"/>
<path d="M9141 3414 c-83 -22 -163 -70 -230 -137 -247 -248 -184 -694 119
-846 151 -75 341 -78 484 -7 42 20 92 56 121 86 l49 50 -83 84 -84 84 -36 -35
c-62 -60 -106 -78 -196 -78 -70 0 -86 4 -128 28 -162 95 -184 361 -41 487 51
44 93 60 160 60 77 0 123 -15 184 -62 l53 -40 69 69 c100 98 100 99 46 148
-54 49 -153 99 -226 114 -72 15 -196 13 -261 -5z"/>
<path d="M2147 3414 c-4 -4 -7 -236 -7 -516 l0 -508 135 0 135 0 0 290 c0 160
3 290 8 290 4 0 65 -86 136 -190 71 -105 132 -190 136 -190 4 0 67 89 141 198
l134 197 3 -297 2 -298 130 0 130 0 0 515 0 515 -137 0 -138 0 -129 -200 c-71
-110 -132 -200 -135 -200 -3 0 -64 89 -136 198 l-130 197 -136 3 c-74 1 -138
-1 -142 -4z"/>
<path d="M3647 3078 c-81 -189 -175 -410 -211 -493 -35 -82 -67 -160 -71 -173
l-7 -23 148 3 147 3 33 85 32 85 202 0 202 0 32 -85 33 -85 146 -3 147 -3 -11
27 c-5 15 -73 183 -151 373 -77 190 -166 409 -198 486 l-57 140 -135 3 -135 3
-146 -343z m339 -136 c28 -75 50 -140 47 -144 -7 -12 -223 -10 -223 2 0 6 21
63 46 128 25 64 50 128 55 141 5 13 13 21 16 17 4 -4 30 -69 59 -144z"/>
<path d="M5470 3300 l0 -120 150 0 150 0 0 -395 0 -395 135 0 135 0 0 395 0
395 150 0 150 0 0 120 0 120 -435 0 -435 0 0 -120z"/>
<path d="M6480 2905 l0 -515 390 0 390 0 0 115 0 115 -257 2 -258 3 -3 88 -3
87 236 0 235 0 0 110 0 110 -235 0 -235 0 0 80 0 80 260 0 260 0 0 120 0 120
-390 0 -390 0 0 -515z"/>
<path d="M7427 3413 c-4 -3 -7 -235 -7 -515 l0 -508 130 0 129 0 3 158 3 157
64 0 65 0 93 -144 c50 -79 98 -150 106 -158 10 -10 47 -13 160 -11 l146 3
-121 180 c-108 160 -119 180 -103 190 134 77 196 195 181 339 -16 158 -123
268 -294 305 -57 12 -544 16 -555 4z m530 -253 c41 -24 56 -54 55 -106 -1 -94
-60 -126 -222 -122 l-105 3 -3 123 -3 122 123 0 c104 0 128 -3 155 -20z"/>
<path d="M9820 2903 l0 -513 125 0 125 0 0 160 0 160 65 0 65 0 107 -160 106
-160 144 0 c113 0 143 3 137 13 -4 6 -59 88 -122 180 -62 93 -112 170 -110
171 1 2 23 15 48 29 62 36 94 72 125 140 33 71 36 177 9 263 -31 98 -126 182
-241 213 -24 7 -155 13 -312 14 l-271 3 0 -513z m517 268 c100 -46 98 -185 -3
-227 -22 -9 -73 -14 -149 -14 l-115 0 0 123 c0 68 3 127 7 130 3 4 54 7 112 7
82 0 115 -5 148 -19z"/>
<path d="M10834 3407 c-2 -7 -3 -237 -2 -512 l3 -500 127 -3 128 -3 2 303 3
303 129 -198 c71 -108 131 -197 135 -197 3 0 65 90 136 200 72 110 133 200
138 200 4 0 7 -137 7 -305 l0 -305 125 0 125 0 -2 510 -3 510 -122 4 c-92 4
-126 2 -135 -8 -7 -7 -69 -97 -137 -199 -68 -103 -127 -187 -131 -187 -5 0
-54 71 -110 158 -56 86 -114 174 -128 195 l-27 39 -128 3 c-93 3 -129 0 -133
-8z"/>









</g>
</svg>
